<mxfile host="Electron" agent="Mozilla/5.0 (Windows NT 10.0; Win64; x64) AppleWebKit/537.36 (KHTML, like Gecko) draw.io/26.0.16 Chrome/132.0.6834.196 Electron/34.2.0 Safari/537.36" version="26.0.16">
  <diagram name="Page-1" id="0d_GAZyEHZ8AiZT9WYZA">
    <mxGraphModel dx="1886" dy="1706" grid="1" gridSize="10" guides="1" tooltips="1" connect="1" arrows="1" fold="1" page="1" pageScale="1" pageWidth="850" pageHeight="1100" math="0" shadow="0">
      <root>
        <mxCell id="0" />
        <mxCell id="1" parent="0" />
        <mxCell id="o_cxcQAfkp90SMaZBWrm-1" value="&lt;font face=&quot;arial&quot; style=&quot;font-size: 30px;&quot;&gt;&lt;b style=&quot;&quot;&gt;High Level Architecture&lt;/b&gt;&lt;/font&gt;" style="rounded=1;whiteSpace=wrap;html=1;labelBackgroundColor=none;fillColor=none;strokeColor=none;" vertex="1" parent="1">
          <mxGeometry x="-640" y="-20" width="460" height="80" as="geometry" />
        </mxCell>
        <mxCell id="o_cxcQAfkp90SMaZBWrm-2" value="" style="rounded=0;whiteSpace=wrap;html=1;fillColor=none;dashed=1;dashPattern=8 8;strokeColor=light-dark(#7c7979, #ededed);" vertex="1" parent="1">
          <mxGeometry x="-605" y="80" width="160" height="570" as="geometry" />
        </mxCell>
        <mxCell id="o_cxcQAfkp90SMaZBWrm-3" value="&lt;font style=&quot;font-size: 20px;&quot;&gt;sources&lt;/font&gt;" style="rounded=0;whiteSpace=wrap;html=1;strokeColor=none;fillColor=default;" vertex="1" parent="1">
          <mxGeometry x="-568" y="50" width="90" height="60" as="geometry" />
        </mxCell>
        <mxCell id="o_cxcQAfkp90SMaZBWrm-4" value="" style="rounded=0;whiteSpace=wrap;html=1;fillColor=none;dashed=1;dashPattern=8 8;strokeColor=light-dark(#7c7979, #ededed);" vertex="1" parent="1">
          <mxGeometry x="-415" y="80" width="615" height="570" as="geometry" />
        </mxCell>
        <mxCell id="o_cxcQAfkp90SMaZBWrm-5" value="&lt;font style=&quot;font-size: 20px;&quot;&gt;Data Warehouse&lt;/font&gt;" style="rounded=0;whiteSpace=wrap;html=1;strokeColor=none;fillColor=default;" vertex="1" parent="1">
          <mxGeometry x="-187.25" y="50" width="159.5" height="60" as="geometry" />
        </mxCell>
        <mxCell id="o_cxcQAfkp90SMaZBWrm-6" value="" style="rounded=0;whiteSpace=wrap;html=1;fillColor=none;dashed=1;dashPattern=8 8;strokeColor=light-dark(#7c7979, #ededed);" vertex="1" parent="1">
          <mxGeometry x="240" y="82.27" width="200" height="567.73" as="geometry" />
        </mxCell>
        <mxCell id="o_cxcQAfkp90SMaZBWrm-7" value="&lt;font style=&quot;font-size: 20px;&quot;&gt;Consume&lt;/font&gt;" style="rounded=0;whiteSpace=wrap;html=1;strokeColor=none;fillColor=default;" vertex="1" parent="1">
          <mxGeometry x="295" y="50" width="90" height="60" as="geometry" />
        </mxCell>
        <mxCell id="o_cxcQAfkp90SMaZBWrm-8" value="Bronze Layer" style="rounded=0;whiteSpace=wrap;html=1;fillColor=#f0a30a;fontColor=#000000;strokeColor=#BD7000;" vertex="1" parent="1">
          <mxGeometry x="-406" y="110" width="156" height="30" as="geometry" />
        </mxCell>
        <mxCell id="o_cxcQAfkp90SMaZBWrm-9" value="Silver Layer" style="rounded=0;whiteSpace=wrap;html=1;fillColor=#f5f5f5;strokeColor=#666666;gradientColor=#b3b3b3;" vertex="1" parent="1">
          <mxGeometry x="-200" y="110" width="160" height="30" as="geometry" />
        </mxCell>
        <mxCell id="o_cxcQAfkp90SMaZBWrm-10" value="Gold Layer" style="rounded=0;whiteSpace=wrap;html=1;fillColor=#ffff88;strokeColor=#36393d;" vertex="1" parent="1">
          <mxGeometry y="110" width="160" height="30" as="geometry" />
        </mxCell>
        <mxCell id="o_cxcQAfkp90SMaZBWrm-11" value="" style="rounded=0;whiteSpace=wrap;html=1;fillColor=none;fontColor=#000000;strokeColor=#BD7000;" vertex="1" parent="1">
          <mxGeometry x="-406" y="150" width="166" height="470" as="geometry" />
        </mxCell>
        <mxCell id="o_cxcQAfkp90SMaZBWrm-13" value="" style="rounded=0;whiteSpace=wrap;html=1;fillColor=none;fontColor=#000000;strokeColor=#CCCCCC;" vertex="1" parent="1">
          <mxGeometry x="-200" y="150" width="160" height="470" as="geometry" />
        </mxCell>
        <mxCell id="o_cxcQAfkp90SMaZBWrm-14" value="" style="rounded=0;whiteSpace=wrap;html=1;fillColor=none;strokeColor=#FFFF33;" vertex="1" parent="1">
          <mxGeometry y="150" width="160" height="470" as="geometry" />
        </mxCell>
        <mxCell id="o_cxcQAfkp90SMaZBWrm-16" value="CRM" style="image;aspect=fixed;html=1;points=[];align=center;fontSize=12;image=img/lib/azure2/general/Folder_Blank.svg;" vertex="1" parent="1">
          <mxGeometry x="-547.65" y="150" width="49.29" height="40" as="geometry" />
        </mxCell>
        <mxCell id="o_cxcQAfkp90SMaZBWrm-17" value="" style="image;aspect=fixed;html=1;points=[];align=center;fontSize=12;image=img/lib/azure2/general/File.svg;" vertex="1" parent="1">
          <mxGeometry x="-504.28999999999996" y="180" width="16.23" height="20" as="geometry" />
        </mxCell>
        <mxCell id="o_cxcQAfkp90SMaZBWrm-18" value="ERP" style="image;aspect=fixed;html=1;points=[];align=center;fontSize=12;image=img/lib/azure2/general/Folder_Blank.svg;" vertex="1" parent="1">
          <mxGeometry x="-547.64" y="250" width="49.29" height="40" as="geometry" />
        </mxCell>
        <mxCell id="o_cxcQAfkp90SMaZBWrm-19" value="" style="image;aspect=fixed;html=1;points=[];align=center;fontSize=12;image=img/lib/azure2/general/File.svg;" vertex="1" parent="1">
          <mxGeometry x="-504.28999999999996" y="280" width="16.23" height="20" as="geometry" />
        </mxCell>
        <mxCell id="o_cxcQAfkp90SMaZBWrm-22" value="" style="endArrow=none;html=1;rounded=0;" edge="1" parent="1">
          <mxGeometry width="50" height="50" relative="1" as="geometry">
            <mxPoint x="-482.88" y="340" as="sourcePoint" />
            <mxPoint x="-563.13" y="340" as="targetPoint" />
          </mxGeometry>
        </mxCell>
        <mxCell id="o_cxcQAfkp90SMaZBWrm-25" value="&lt;b&gt;Object type:&lt;/b&gt; &lt;font&gt;csv files&lt;/font&gt;" style="text;html=1;align=left;verticalAlign=middle;whiteSpace=wrap;rounded=0;" vertex="1" parent="1">
          <mxGeometry x="-595" y="357" width="140" height="30" as="geometry" />
        </mxCell>
        <mxCell id="o_cxcQAfkp90SMaZBWrm-26" value="&lt;b&gt;Interface:&lt;/b&gt; &lt;font&gt;files in Folders&lt;/font&gt;" style="text;html=1;align=left;verticalAlign=middle;whiteSpace=wrap;rounded=0;" vertex="1" parent="1">
          <mxGeometry x="-597" y="390" width="142" height="30" as="geometry" />
        </mxCell>
        <mxCell id="o_cxcQAfkp90SMaZBWrm-29" value="" style="html=1;verticalLabelPosition=bottom;align=center;labelBackgroundColor=#ffffff;verticalAlign=top;strokeWidth=2;strokeColor=#BD7000;shadow=0;dashed=0;shape=mxgraph.ios7.icons.data;fillColor=#f0a30a;fontColor=#000000;" vertex="1" parent="1">
          <mxGeometry x="-353" y="157.73" width="50" height="74.55" as="geometry" />
        </mxCell>
        <mxCell id="o_cxcQAfkp90SMaZBWrm-30" value="" style="html=1;verticalLabelPosition=bottom;align=center;labelBackgroundColor=#ffffff;verticalAlign=top;strokeWidth=2;strokeColor=#666666;shadow=0;dashed=0;shape=mxgraph.ios7.icons.data;fillColor=#f5f5f5;gradientColor=#b3b3b3;" vertex="1" parent="1">
          <mxGeometry x="-145" y="161.36" width="50" height="74.55" as="geometry" />
        </mxCell>
        <mxCell id="o_cxcQAfkp90SMaZBWrm-31" value="" style="html=1;verticalLabelPosition=bottom;align=center;labelBackgroundColor=#ffffff;verticalAlign=top;strokeWidth=2;strokeColor=#36393d;shadow=0;dashed=0;shape=mxgraph.ios7.icons.data;fillColor=#ffff88;" vertex="1" parent="1">
          <mxGeometry x="55" y="157.73000000000002" width="50" height="74.55" as="geometry" />
        </mxCell>
        <mxCell id="o_cxcQAfkp90SMaZBWrm-32" value="" style="shape=singleArrow;whiteSpace=wrap;html=1;fillColor=#cce5ff;strokeColor=#36393d;" vertex="1" parent="1">
          <mxGeometry x="-455" y="180" width="55" height="37.28" as="geometry" />
        </mxCell>
        <mxCell id="o_cxcQAfkp90SMaZBWrm-34" value="" style="shape=singleArrow;whiteSpace=wrap;html=1;fillColor=#cce5ff;strokeColor=#36393d;" vertex="1" parent="1">
          <mxGeometry x="-245" y="178.64" width="55" height="37.28" as="geometry" />
        </mxCell>
        <mxCell id="o_cxcQAfkp90SMaZBWrm-35" value="" style="shape=singleArrow;whiteSpace=wrap;html=1;fillColor=#cce5ff;strokeColor=#36393d;" vertex="1" parent="1">
          <mxGeometry x="-50" y="178.64" width="55" height="37.28" as="geometry" />
        </mxCell>
        <mxCell id="o_cxcQAfkp90SMaZBWrm-36" value="" style="shape=singleArrow;whiteSpace=wrap;html=1;fillColor=#cce5ff;strokeColor=#36393d;" vertex="1" parent="1">
          <mxGeometry x="190" y="180" width="55" height="37.28" as="geometry" />
        </mxCell>
        <mxCell id="o_cxcQAfkp90SMaZBWrm-37" value="Raw Data" style="text;html=1;align=center;verticalAlign=middle;whiteSpace=wrap;rounded=0;" vertex="1" parent="1">
          <mxGeometry x="-358" y="234.55" width="60" height="30" as="geometry" />
        </mxCell>
        <mxCell id="o_cxcQAfkp90SMaZBWrm-38" value="Cleaned, Standardized Data" style="text;html=1;align=center;verticalAlign=middle;whiteSpace=wrap;rounded=0;" vertex="1" parent="1">
          <mxGeometry x="-175" y="232.28" width="110" height="55.45" as="geometry" />
        </mxCell>
        <mxCell id="o_cxcQAfkp90SMaZBWrm-39" value="Business Ready Data" style="text;html=1;align=center;verticalAlign=middle;whiteSpace=wrap;rounded=0;" vertex="1" parent="1">
          <mxGeometry x="25" y="232.28" width="110" height="55.45" as="geometry" />
        </mxCell>
        <mxCell id="o_cxcQAfkp90SMaZBWrm-40" value="" style="endArrow=none;html=1;rounded=0;" edge="1" parent="1">
          <mxGeometry width="50" height="50" relative="1" as="geometry">
            <mxPoint x="-287.88" y="269.52" as="sourcePoint" />
            <mxPoint x="-368.13" y="269.52" as="targetPoint" />
          </mxGeometry>
        </mxCell>
        <mxCell id="o_cxcQAfkp90SMaZBWrm-41" value="&lt;b&gt;Object type:&lt;/b&gt;&amp;nbsp;Tables&lt;div&gt;&lt;br&gt;&lt;/div&gt;&lt;div&gt;&lt;b&gt;Load&lt;/b&gt;:&lt;/div&gt;&lt;ul&gt;&lt;li&gt;&lt;span style=&quot;background-color: transparent; color: light-dark(rgb(0, 0, 0), rgb(255, 255, 255));&quot;&gt;&lt;font&gt;Batch Processing&lt;/font&gt;&lt;/span&gt;&lt;/li&gt;&lt;li&gt;&lt;span style=&quot;background-color: transparent; color: light-dark(rgb(0, 0, 0), rgb(255, 255, 255));&quot;&gt;&lt;font&gt;Full Load&lt;/font&gt;&lt;/span&gt;&lt;/li&gt;&lt;li&gt;&lt;span style=&quot;background-color: transparent; color: light-dark(rgb(0, 0, 0), rgb(255, 255, 255));&quot;&gt;&lt;font&gt;Truncate &amp;amp; Insert&lt;/font&gt;&lt;/span&gt;&lt;/li&gt;&lt;/ul&gt;&lt;div&gt;&lt;b&gt;No Transformations&lt;/b&gt;&lt;/div&gt;&lt;div&gt;&lt;br&gt;&lt;/div&gt;&lt;div&gt;&lt;b&gt;Data Model:&lt;/b&gt; None (as-is)&lt;/div&gt;" style="text;html=1;align=left;verticalAlign=middle;whiteSpace=wrap;rounded=0;" vertex="1" parent="1">
          <mxGeometry x="-400" y="280" width="140" height="210" as="geometry" />
        </mxCell>
        <mxCell id="o_cxcQAfkp90SMaZBWrm-43" value="&lt;b&gt;Object type:&lt;/b&gt;&amp;nbsp;Tables&lt;div&gt;&lt;br&gt;&lt;/div&gt;&lt;div&gt;&lt;b&gt;Load&lt;/b&gt;:&lt;/div&gt;&lt;ul&gt;&lt;li&gt;&lt;span style=&quot;background-color: transparent; color: light-dark(rgb(0, 0, 0), rgb(255, 255, 255));&quot;&gt;Batch Processing&lt;/span&gt;&lt;/li&gt;&lt;li&gt;&lt;span style=&quot;background-color: transparent; color: light-dark(rgb(0, 0, 0), rgb(255, 255, 255));&quot;&gt;Full Load&lt;/span&gt;&lt;/li&gt;&lt;li&gt;&lt;span style=&quot;background-color: transparent; color: light-dark(rgb(0, 0, 0), rgb(255, 255, 255));&quot;&gt;Truncate &amp;amp; Insert&lt;/span&gt;&lt;/li&gt;&lt;/ul&gt;&lt;div&gt;&lt;b&gt;Transformations:&lt;/b&gt;&lt;/div&gt;&lt;div&gt;&lt;ul&gt;&lt;li&gt;Data Cleansing&lt;/li&gt;&lt;li&gt;Data Standardization&lt;/li&gt;&lt;li&gt;Data Normalization&lt;/li&gt;&lt;li&gt;Derived Columns&lt;/li&gt;&lt;li&gt;Data Enrichment&lt;/li&gt;&lt;/ul&gt;&lt;/div&gt;&lt;div&gt;&lt;br&gt;&lt;/div&gt;&lt;div&gt;&lt;b&gt;Data Model:&lt;/b&gt;&amp;nbsp;None (as-is)&lt;/div&gt;" style="text;html=1;align=left;verticalAlign=middle;whiteSpace=wrap;rounded=0;" vertex="1" parent="1">
          <mxGeometry x="-190" y="300" width="140" height="300" as="geometry" />
        </mxCell>
        <mxCell id="o_cxcQAfkp90SMaZBWrm-44" value="" style="endArrow=none;html=1;rounded=0;" edge="1" parent="1">
          <mxGeometry width="50" height="50" relative="1" as="geometry">
            <mxPoint x="-79.87" y="287.72999999999996" as="sourcePoint" />
            <mxPoint x="-160.12" y="287.72999999999996" as="targetPoint" />
          </mxGeometry>
        </mxCell>
        <mxCell id="o_cxcQAfkp90SMaZBWrm-45" value="" style="endArrow=none;html=1;rounded=0;" edge="1" parent="1">
          <mxGeometry width="50" height="50" relative="1" as="geometry">
            <mxPoint x="120.13" y="279.99999999999994" as="sourcePoint" />
            <mxPoint x="39.879999999999995" y="279.99999999999994" as="targetPoint" />
          </mxGeometry>
        </mxCell>
        <mxCell id="o_cxcQAfkp90SMaZBWrm-46" value="&lt;b&gt;Object type:&lt;/b&gt;&amp;nbsp;Views&lt;div&gt;&lt;br&gt;&lt;/div&gt;&lt;div&gt;&lt;b&gt;No Load&lt;/b&gt;&lt;/div&gt;&lt;div&gt;&lt;b&gt;&lt;br&gt;&lt;/b&gt;&lt;/div&gt;&lt;div&gt;&lt;b&gt;Transformations:&lt;/b&gt;&lt;/div&gt;&lt;div&gt;&lt;ul&gt;&lt;li&gt;Data Integrations&lt;/li&gt;&lt;li&gt;Aggregations&lt;/li&gt;&lt;li&gt;Business Logistics&lt;/li&gt;&lt;/ul&gt;&lt;/div&gt;&lt;div&gt;&lt;br&gt;&lt;/div&gt;&lt;div&gt;&lt;b&gt;Data Model:&lt;/b&gt;&amp;nbsp;&lt;/div&gt;&lt;div&gt;&lt;ul&gt;&lt;li&gt;Star Schema&lt;/li&gt;&lt;li&gt;Flat Table&lt;/li&gt;&lt;li&gt;Aggregated Tables&lt;/li&gt;&lt;/ul&gt;&lt;/div&gt;" style="text;html=1;align=left;verticalAlign=middle;whiteSpace=wrap;rounded=0;" vertex="1" parent="1">
          <mxGeometry x="10" y="290" width="140" height="300" as="geometry" />
        </mxCell>
        <mxCell id="o_cxcQAfkp90SMaZBWrm-47" value="" style="image;aspect=fixed;html=1;points=[];align=center;fontSize=12;image=img/lib/azure2/power_platform/PowerBI.svg;" vertex="1" parent="1">
          <mxGeometry x="290" y="156" width="51" height="68" as="geometry" />
        </mxCell>
        <mxCell id="o_cxcQAfkp90SMaZBWrm-49" value="" style="shape=image;aspect=fixed;image=data:image/svg+xml,PHN2ZyBoZWlnaHQ9IjI0NjciIHdpZHRoPSIyNTAwIiB4bWxucz0iaHR0cDovL3d3dy53My5vcmcvMjAwMC9zdmciIHZpZXdCb3g9IjAgMCA2MC4zIDU5LjUiPjxwYXRoIGQ9Ik0yOC41IDQwLjJoMy4zdi05aDguM1YyOGgtOC4zdi05aC0zLjN2OWgtOC4ydjMuMmg4LjJ6IiBmaWxsPSIjZTg3NjJkIi8+PHBhdGggZD0iTTEzLjIgNTMuMkgxNnYtOGg3LjR2LTIuNUgxNnYtOC4xaC0yLjh2OC4xSDUuOHYyLjVoNy40eiIgZmlsbD0iI2M3MjAzNyIvPjxwYXRoIGQ9Ik00NC4zIDI0LjNoMi44di04aDcuNXYtMi40aC03LjVWNS44aC0yLjh2OC4xaC03LjR2Mi40aDcuNHoiIGZpbGw9IiM1Yjg3OWIiLz48cGF0aCBkPSJNMjkgNTkuNWgyLjR2LTUuN2g1LjF2LTIuMWgtNS4xVjQ2SDI5djUuN2gtNXYyLjFoNXoiIGZpbGw9IiM1YzY2OTIiLz48cGF0aCBkPSJNMTMuMyAyNC4zaDIuNnYtOC4xaDcuNXYtMi4zaC03LjVWNS44aC0yLjZ2OC4xSDUuOHYyLjNoNy41eiIgZmlsbD0iI2ViOTEyOSIvPjxwYXRoIGQ9Ik01Mi44IDM2LjNoMi40di01LjZoNS4xdi0yLjJoLTUuMXYtNS42aC0yLjR2NS42aC01djIuMmg1eiIgZmlsbD0iIzVjNjY5MiIvPjxwYXRoIGNsaXAtcnVsZT0iZXZlbm9kZCIgZD0iTTQ0LjMgNTMuMmgyLjh2LThoNy41di0yLjVoLTcuNXYtOC4xaC0yLjh2OC4xaC03LjR2Mi41aDcuNHoiIGZpbGw9IiMxZjQ1N2UiIGZpbGwtcnVsZT0iZXZlbm9kZCIvPjxwYXRoIGQ9Ik0zNi4xIDcuMlY1LjVoLTVWMGgtMS44djUuNWgtNXYxLjdoNXY1LjVoMS44VjcuMnpNNSAzNS45aDEuOHYtNS41aDV2LTEuN2gtNXYtNS40SDV2NS40SDB2MS44bDUtLjF6IiBmaWxsPSIjNzE5OWE2Ii8+PC9zdmc+;" vertex="1" parent="1">
          <mxGeometry x="349" y="160" width="65.88" height="65" as="geometry" />
        </mxCell>
        <mxCell id="o_cxcQAfkp90SMaZBWrm-50" value="&lt;b&gt;BI &amp;amp; Reporting&lt;/b&gt;" style="text;html=1;align=center;verticalAlign=middle;whiteSpace=wrap;rounded=0;" vertex="1" parent="1">
          <mxGeometry x="290" y="229.10000000000002" width="110" height="35.45" as="geometry" />
        </mxCell>
        <mxCell id="o_cxcQAfkp90SMaZBWrm-51" value="" style="sketch=0;pointerEvents=1;shadow=0;dashed=0;html=1;strokeColor=#001DBC;labelPosition=center;verticalLabelPosition=bottom;verticalAlign=top;align=center;fillColor=#0050ef;shape=mxgraph.mscae.oms.log_search;rotation=-90;fontColor=#ffffff;" vertex="1" parent="1">
          <mxGeometry x="290" y="280" width="95" height="95" as="geometry" />
        </mxCell>
        <mxCell id="o_cxcQAfkp90SMaZBWrm-52" value="&lt;b&gt;Ad Hoc&amp;nbsp;&lt;/b&gt;&lt;div&gt;&lt;b&gt;SQL Queries&lt;/b&gt;&lt;/div&gt;" style="text;html=1;align=center;verticalAlign=middle;whiteSpace=wrap;rounded=0;" vertex="1" parent="1">
          <mxGeometry x="304" y="387" width="90" height="33" as="geometry" />
        </mxCell>
        <mxCell id="o_cxcQAfkp90SMaZBWrm-53" value="" style="shape=image;aspect=fixed;image=data:image/png,iVBORw0KGgoAAAANSUhEUgAAAMgAAADICAYAAACtWK6eAAAABHNCSVQICAgIfAhkiAAAAAlwSFlzAAALEwAACxMBAJqcGAAAIABJREFUeJztnXe4HUXZwH83nYQUSigSMYTeIUqTQKiCIM1CE00+pfMBgugnCEhVQYoGxEK7ogKCggqKUqVJE5QmSCcEKYEQUki5yT3fH28OOXfm3bOzuzOze27O73nmeXJPdmfeLbMz885bOmgDMBBYFxgDjAKWBYYCHUAXMA14GXgMeKEkGUMxGNgLOACoLfp3myWcAcCuwIXAo0gnqDmWycAk4OPRpfZHf+AzwNXALHpe31ElytWmZDYFfgpMx71DNCsPIC9aK9AH2A74GfAuydc0G1i7HBHblMWWwK346RRauQ/4RLSrycYngPOBKbhfz8NAvzKEbROXFYFryfayvwc8CzyCvChP0PyLWy8LgR8hc/qyWRs4HXiO/J3+9OhSt4nKnqS/2NOB64Gjga2AYU3qWxU4GLgd6G5S53PAWO9Xk84o4AREkeDaCRYCdyCdwbymBcAWUa+gTTROpflLcSOyduifs/61gc5FdWltzAMOyS290A/YETgW6cDbIOuIRpYDDgfupnmn1aZQXwNWbqjrAuW454AhBa+jTcW4kOSO8QtgDY9tbYSsP5JexB8DfXPU+2ngFaW+/yDat4OAPwHzm7RtlmeAU0i+/oHAU8p5P80hf5uK8m30l+NJYPNAbXYAxwBzEtq+iWzrkv1IHpmylsnAucAmjm1vgox+Zj27Z5C/TUXZBX2a0QkMitD+hiQviu+l+fqmzorAjIQ6XMtU4BJkStaR4zr+T6nzTWD5HHW1qQhLI19L88GeE1mO4cCfFTlqwIOkd5ITE85NKzOBXyJTs6Lq2T7APUobNxSst02JnIL9QC8vSZa+yLxde5Hvo/lo9qeE87QyD/g9sC+wlOdrGI0+kv2P53baRGApbHXus8SZVjXjTPQX++Im59ydcI5Wbgwl+CImKm3OAFYL3G4bz+yH/SD3LFWixWhKg4XA+gnHX6kcn1TODSn4In6ntHsvMg1bF7m+TmTNM4G2SriSXEXPB/gS+RanoTgP+yW7JOHYPZRjk8pmQaUWlgfeUNp+EF0h8iayDmpTIUzN0Y/KFcdiAPA6PWV8NeHYDuAu0jvH1WFF7sFuDvI0li7gUxHla9OEvohJROMDmlCqRDo/wX6RkjRayyM73Ukv4M3Et/fS5G9WJiMfhjYlsyz2w6ni10vTsq3a5Pj+2NbHMxCnpjKmj4PJbvhYlXVgIUzbnlajVeSvKb81k70L+K/x29vANQl1heYD4NCM57SyQ9mHtMoLlsQM5beR0aXIR6vd+/9kPL5X+JO02kMymY+YVjSSpEKtGlXStLnwFvoHKYl/hxIkJq3eQUAsUBsZX4oU2Wm1DrIU0klcmIkoE1qe3tBB7jf+3hJYqQxBmpB1DVI1hiBmMGs6Hv9/wPvhxIlHKz2kJG4x/u4DfLkMQTLSKiNIvXO4jMwLgZMQtXCbitCBbLyZG3F5vQVDcBK2GnTdlHM6jePLiMc1BPgbyarcRxC7t8cQ64ANS5AxKL1B01ADrgBOa/htVcTlNcmkIzbaFKvqI0jayHEG8J2CbXwccWQbBDyP+MfPKVjnEksfYHXkge0CjGPxZtsKiK6+8es2FVgmvpgq38L++m6Qck4n5Y0gzUaObsRHvgjrITHFzLrfpbgv/xLFAOBAxG11JvoDm4rYJmnmGZfGF1lF89JLm450Uk4HadY55iPPowgbIwv4ZrvwRUemXk8H8BVsI788ZbfIsmt8E1uujVLO6TSOj9FBmnWO2RS31O0DPJ1QvzlKbVmwrV7LssBfKd4x6uVt4CNRr8DmG9hybZxyTqdxfOgO0qxzTAM+6aGNXRPq18q1HtorTNXUvKOAv+PX4HAk4k890GOdWan6Ir3ZgvyNRb//3UM722Q4dmsP7RWmSlqs5YDb0AMnv4Y4Rt2NxIvqQiKAbIQEV9sdCdyQxBaIj/qX0F/W0GhtlvFx+ijiV74ZsjP+LPLxOBW9c7wI7IykfvCBS2SXPMf2ejqQDT9zmJ2LTE/S9jSGAIch05Bmw/b3A8juwvGKLGnWrp3G8UWnWIeTHLtLK/9CPkI+OSFD+497brulOQp93rtVxnr6AUcuOjfpxp/kR+RMfE2RIy0afKdxfJEOMlFpv1m5Bwlh5JP6NM5VhjM8t9+yjMTO1zGPYnPQkcB1JN/82KYoxyoypPmUdxrH5+0gw5GI9a4v5k34DyO0IvCPDDLUkKlzGyQ6h3lzjvdU90REPal9IWNyjCJDWuT0TuP4vB1kgtJ2UnkC/+vSdZE1TJbOUUNU/KM8y5KZsrVYQ4EjjN8ex1/ghU5En/6y8ftkT/W70q38FkuLlbZj38gwxMffF+MRa+vRyv/dje3L08hHkNGsmfIlOGV3kP2xb8B3EKtQX9QDV9+ETN3uQXa2Y1JmB8mCz/fhAMSvXjP3ORtJB7cSYj60PrADopRpZBPEzbjs97Q0bqPnsFq1mFa+OAJ7CpG28daJnynWl5W2k4ovJ6cT0eNmddHc1mq/hPN+6EmulmIIdn6LM0uVKByHYz/0NCVEJ346yDDcF+mfz9lGnb5IklCt7pnITnoaSSksjiwoW8uxE9kXrq3KIdjXOi7lnE78dBBwG0VuKlA/NFfj/hfJMOzKlUodCxAr7iUG04BvNtXa2ffJwdgPPM3sohN/HQQkbI/pElAv11IsGN1KJKtxn6J5DDCN/sCdSl3vk03pUJgyX0jTo+4p/GpQqkRN+S32WuvnyBd+IjJSD0JC+fwGScvgwqbAFxF/jm5E43gf4mL7MeX4u4B9yO6f3gV8DvEZaTQ9GrboGjbHPYBEy2Iu0GPGm43NV7C/htumnNOJ3xGkCH2RtA2ui/0aktCnaPjRMYgq2Kz7IfxvZqqUqT4z1X9vlyJFHKowghThYsQcyJWzEcPQ+QXbfQnYG1HPN7I5Yrwa/B6W2UHMr4t5E3oTrbIPorEFooVzYQGy1jnZY/v3IxbI5kfm88B3PbajUmYHMb8uZfprhKaVR5AJGY79CWHcnK9Bd8P9FoHTwpXZQd4z/vZtWl0lWrmDpLkGNzI6lBDIHtlVyu8/A7YP1WiZHcRMIpMWJ6qV0aZYvZHQscgOQWy4zDZvQGJzTUPs7n5JujuBE2V2EDOm7gaIV2FvpJVHkCyOS6EDVs8HPovkKmlkBKKCXgYZxQ5CNF2FfX/K7CCm7r0vYuDWG2nlDnKl43E14FchBVnENMTF+t2U4/og2rQsa6hK0QFMoad++2WqFTLUF/tj6/J3Tjmnk+rsg0wifd9jUmSZXPdl3qaAAqjMEaSGBFJoZDSyqdbbaPU1yNeAC9FHwnrnOC6qRLCX43EjaZ2UGBYjgVn07PGTETOI3sQXsL9saaGNOqnOCFLHHElmkU3L5YshuI0e9ZLbErhsR5Sp2AGmP0q2XdtWoJXXII2Ye1dzETfd2HSRbVTOHRC7rA6yFqKym4Qe/uYkRDPRW9A6SGzGIPf7CSTO2EPI5tuyZQqVk/lIWCJXHgwliE8GIUPdk7gNiz8oR8wgfBb7+tKchzrxN8X6Mskxsd7EPQ7ueca57xSQqSh185O0cmdZAmZhH2RtkWXeOBf56sWkD2LOfRrwdcTgbjywSsF698G+vrRA0J3G8Xk7yE6Ij3+zez0NN5+NKnWQDuAPNL+udxCf98oyAPFDyNIxGstvI8t7QRNZpgG3IyYP25NNHb23Ul/WDvISMu3MWp5qck2NRTPjMKlSBwF5v36EGEma1/MQehjbyjCI9CjtU5C8Hk8jCy/tmB0iyvxWiryN5X1kY2w3ZJOzGVoHSUvL0JlBFh9lNumd3kcHGYxsCP8ACcZwOMXt8D66qJ7vIwEj0tyZS6cDsY/RHsQHSLC4NYxzhqMnmnmaeJ6PWtYjlzIFOAVYPqHevZRzqtZBasBqKTIV7SB7o3+E5iAvditq9nKhveg1xLxkdMq5NyvnfSOUoAbrIkPzbPTwM2llFnAWdqwvrYPsniJLZ472i5aVU2Qq0kG+QPpa6LwM9bUsayALbPPir8Nt3r46tsZlFtkd/4vSF1mcb4No3y5HfLhdXrTX6LnG2FM55jMp7Xc6tuWrvOZwT/J2kBG4hx7ykajHGyGmLmdh2778Fclt5xKU4UVkLnlaw29DENubPT3I58pCJD7s68C9Db+vCuyBfBG3RZ8WjAL+jMyx69mlivIOYnyXlb1xM7UImdv8i7jvax2Fn2Q9lWRj7KnJa2TPNjsQMWk2vy77epPUD6sjX9UZJH8Rb0dekKIjSF417ypIXKpmX+0HcTPoyzuCXJXSfmN50bHOluRq7AveO2ddOyh1vUk1d36XQbQy89AfupneoYaMQs3oNI4vslE4BukEmmzX4Z7NKW8H+V1C21pJM2NvWZbDDiV6f8E6r8S+gTF8DvKyPno6aq3E7CB1tgNOBy5CtEZpiURN8nYQLcVFs/IYEqc3TX3eUnwV+0L3KVjnMkgSSV+jUgwGAJdRzQ5SlLwdZAvcO4d5zYfTSwJ6mBmd3sWPEkDbZHsLWMFD3SGp+08klTSFQyf2y1I2RdS8vyV7B6mXN5AIJr7TwkXFtLW6xmPd2trmjx7rD8XvaXeQOkNJzsNew/YL0sr7wDlILOCWYmnsiznWY/3LomtizOxUVWMEeujMJbGDgKwpDkcCXddNi15AtgaGI3tOLok+5yI2fqY1RmVZG/si0kwpsrKr0sYcyvFoy8LRtDuIRh+SN443An6NboTYWBYiU/uxBeSIwubYwqdlcc3DRUo7z1ByHrsUhqH7YrRiBzmfnjLNIN1+qwirAT8mOW1DY7mNCmfG1TqI5ilYlEGIR5zZ1m8CtOWTTlq/g5yEvs/ThRhqhmQFxIrAxVzlYSR1Qtnu5D1YF1vQtLA2eVkPPbXz1wO15wMtw1QrdZBTSH8xT4sgx1DEdCfNMqCG2M0dTPEUDF4Yhi1gyAX0l5T2FpDuhFQWWgdplX2QNUn21THvfywHpYHIPdXMkczyOtKphkaSLRFzQ68zcHs/xb4Z7wMbBm43D63cQc4m/SWsl+9Flq0PYjSalP6tsbyHXEtp+2emzv8tws4DByBWn+aNmEJ80/g0WrmD/Bn3DnJLSTKCTOnvSJCrscxBQk05KRd8vsC3GX+vgH9VbyP1QMamH8Mqi2RJc/5p40aWd6TMnJd1LdbmiDdrUtysQcj0/3kctgh8dZAdgeOV30N7Ar6JfIlnGb+vhSSQLBqNJCS1sgVw5OkMx5oR+8vgEUSLtR5wBclp4PpSLLOvEx3AqTR3Ty1qsOjCztiWxDXE/CVq2uAEtClWLH+QoowlfdpSLyFU+0VZBdm/mYktr2s8sFx0IF5oaTftvyQHM/DJfug7r7ORF7TMgABaB8nqk16mmvfHpD/nkB6JPjiQyB3ku0qDNfTR5FbizE/rbr2aXI8ikeNdHK76IbGvrgCeRfLuDSkgV6t3kH5IqrOkznEp5a4/XNBSUKR2kLwXtRficGPyF2Qtchs95/87I0EP/oewqQCuRswSrsGOED92kQyXInFd/4nkI5mG2PQMRXzJ10f8Fxq97NZGhmhtneVCq4ezWQAchjiwTURU6R1IGNlf0It9yPOwDHpso0tZvOjfFn1z6RriJMjZEtkgcp07u5Q7CshzmFJf1rhYZZuatDq5RpA8WqwTsTdb/oi8BPXR4R4k6Yom5O2Et+d/EMlZd6PHOv/gsa42vZQR2I4tb5E8r0/ahX2D9Dm4L45MkMGldCN+9QcVlOFwpe5YwavbCFHWIAdhL1ZPR+bxGt9eJMi3jd9XQiIoXgOcjARmDsFySLDpOh8gC+9NERujkfRcH0xHws48jsyr/4JM1XorHYhqdh1kSvwYsoHWZhFZO8jnjL+nkZ4F9WTkJZuktHcAstG3OeLX4Ztj6Tm6DUY664xFf/dFfEk6kM6TtKlUFG2RXgvUliufQp6JaWD4N2Sn+dnYAiWwFvIh624oNeNv7Tfz7+ApxpfCXnhfkeH8bUjOEXKGV0mFpZEObKp6y+AI7GuOmUDH5CCax8mdDmzisb287IQextZX8TrFGqscn0Wzcy+iHjwPCRHU+FWdkqEeVw7Djuh4eoB28pJ1BBmAn5d2BOLP3UxBMxyZ/m6IW7jYEIxDFCMtE/JnInYPXC9nXVsh8/x5yJfSt+q3P3YO9n96biML2giSNcttGaWs+GObIa4Loa/P6wjyEeW3yRnOb+QBskf1y8L+2IaK3w/YXhpVXIO4sC3ixhCTDRHliGs41KBk6SCm5WMN24q2KphJ7V8mfjq3Rlq1g2QNOl6UtZF9MnPbYA4yLZ+CTA37IPdU+3fS/61Ljil2lg5iPtB6wyFNR/KwLaLGbWQSsigtC22+3wodJO8MIQ9jkDWtuQk9H7EI/2vB+scRuIPMUH5bhupF4z7G+HsW2bRtIcgzgpwPXBtAlk9hj7BJ3BSgfY1RSOcwp8ULECvtop0jCgdhL3KqFrBrFWxr3p+WKpFwDPa9i5mctJEhyJQzbQF7QyR5VkTP3LUQ2SfzxTilDa+2WNoOa9WiGh6CHTK/Ch2kSlOs2UjIoTebHPMw4hoQmmURy++1jN9rwKH4je8cnMHYG4WXlSpRT/pgb0Q+UqpEizkO++u1XZkCIXP9i5Epcl2ml5Eo6jFiSQ1Dno82eh0doL1cI0hWHjIaeJ3q+DrsjH0DjipVosV8HVu28aVKtJgOpLOEzNw1CHkWdyAWAQ8g+2Ba5/hWIBmidJBTlUa2891ITjrpKdd84rj6unAC9n3bplSJ4jEG+DduG3dnJtThgygdZH2lket8N5KDfth2VzeXKlFPtLzx40qVKA5LIyOGS+e4ILAswRfpICFgHjZ+q4dYKZPNsTe1ri9DkARadaOwKMchmYDTmI3uwl06eTwKL1HquIRy1yJmaJ8FVCsDlZaMcknoIPs7HjeEiqYuyNNBrgZeMX4bT7lfgH8Zf9+KxGKtCnlGkE2R1NI3I1atpxE2F0cIsgSzXj+YFCXweez5XDcStaQsJiDusZ1UL8Hnd3Cf//ZDD8xdVzx8M7SwHnFJfFMvPlP2aURZpDdyvdJgN5JLolLJS3LSgdjuPIt8wXci/3WdgX2vtkg49grlWLO4moqUzb24d5CtA8sSvYMMR14e7WLvppppCLLwRezrmoIYPu6CeFi6cpZSl5aibhvlOK3MoTWCc2vmSVp5gvBr2OgdBGA0El1du+iFiLFdq6ozv0fzhzoX8d8+CzHdGJWxrk8ox12e0marjSIdiLKk2XV8QJh8lialdBCQTpI0ktTLq0js1v0RtV9Vdt+bsSXpWVbNMh0xn/gd4tZ6MbImekU5VjP0dEkEUy9XFry+XRbJ+TJiEXEX4vno28xkIBK2VAtJ+xLwSc/tJaFlJYvSQUDsan6jCNDsq/EkYk59BRJk7mOxhM3A5sCv0LPUFi2af/ljGc7vzHlN/YGrmtT7BPDRnHU3Yx1E03kpsin4OeLlD9waXWEQrYOA3PhLFSFcSz3+axUZjli33oKe6TVP0Syhf5Hh/LxJS10i8j9NtjVWldkYPTvuG4ipfXD6IEOzS+bRtDI1hsAFGYoE756EBILIOg2rFy1vyfaO586l+ZoniY1onsulsbSSOjmJNRCzfvPa3iVS3pgRiD2/jy9qDXg7htCeGYyobL+CLMavRrR4TyNrr6eQaI3mtSaZ5zSb/tRL3sxd33eou14ez9lGVVgF3TFsJskqdq8MRsyWfXWOechCqjfyDezrXSfh2AEk74V0YYdxzcJNCfUmtdWqLId8oLSRN5MnZ5GkJ1ehL3K6kOjuDyBeiG8iMY7mIarferCHfoiNUgci/Eu0xhTLF7WE3+cjo9EVyEZbI6dSLNVylgAbVQvGoTEa8TwchyiKJiMfgYOxR+gFiBb1zhiCHY/+1bmU8KkNWpFvYt+rNVPOGaKco6WUyMKZSp1J5R8F2wrNobhrF7uJODtZD12Tc3IsAVoQzR9kTMo5Q5VzzIgtWVkLd6XC/xZsKyQHkG36HvVa7lEE+GVMAVqQk7Dv2eiUc0Yo5/h40Em5Jc1SVQuIIchU3LVznBJTuM8pAjxHsQSXSwL1PCmNZdWUc5ZVzjnCgywdSADxNHXva1TPKhokTpZr55hDwbjPWaxTOxCzbZNDEY+wNslo9zkt0qPmZOVj4VxDfOQ/gWwaPoKodE0V+yjEOkKTo0yyxHQeRPpU1hufwu6hZca7TWI04q8SwlwiL9/Bvndp1rgrKuccElDGjdHNMc4P2GYe0oxIzZKkTveO5v9RNZP2HVisQPiA8D4Grmj+IGnTl5WVc0IHc9NM/GvItKYqfBn3zvEBkfKLDMVWqRVJixyKP9BTxj+VK86HaMlM00ISjVLOmRhOxA+ZpLQ7i0imGQ6MQHbDXTpIYeWR6xpkZ2Q+18gvijYegOnG37ug5zWJjXaf09YTec7xwdexNyiHICm1h0doP43piFYwjfcoZnUAuO+kb2/8vZBqRQ2pcw0yBNfpi6RgPrUccT5Eu895FukxUjh0Afsi+RwbPy5rAPexOCNxB4v9ejo8/wbyAe5MkPEiZAQ+Bd236E3EoDRa+gYzhupDsRrOSB9s56Sp2Ml/YnMB9vC/dMo5qyvn+Ix2nsZW+DPtz1t+jUzvk9gM6UgvIlq4fyAKkZBhVC3qKZIbBb8opgAZ0QwDi5poFOVH2DKl+VusqZwTe7Gs5VaMXV5EHNcqy0rYQlclKLTGcOwEkG9Q7ihyEfY9TPOmW0c55/MBZUzCJcpK6DIfMdeJ7qrtsgbRvK5CpG32xfuIL3jjQm4lZBT5bikS6bu5aeuJshbpJkciYV3zRFFZjZ7q7PmkZxsehuQTbKQ/4suyI7LGbJbbJDpbY/fo7coUyIHlkJRxjTK/TyQXS4XLsO9hGhsq55SVljkvZgC8VxzO6UA+Zknrn7eBTweQVcVFzZvHTKJs3kXsjRoZRnmpoM2R2mUkaMX77oMa8EPE1+g55f9HIvtbFxAh6INLB5mr/Fa2VsiF85FwNo1MpJzENeYUy+VFr8oUqyz+iYRG6lT+rwOJC/YA6X41hXDpIFoW2ypaeZrMRg88cBnxrY/NPQ2XDhLKWLGVmI3Eez4QPcvyWCRU0sRQArh0kNex58xpptpV4WpsF8s1iG+AZ44gCxzOWdJHkEauQeKIaftvSyNB9NL2THLh0kHmYWsNsoS1z0MfJFfdnYjmqchc8zBkH8f8bd8CdWbFXIPkHUGWhDVIEi8jTlz1yCwmByJpMErZM7mDnpqEpwK3Z4anObdgff+LrQ2ZRTbfgiL82Wj7HYdzNO1hWbnV85JHi+XCTiTHYStlz+QcQ4huRJUaggnYF31/wTo70EPevE6ckKe3Gu2+5XCOFul9u0DyheLn9JTfp21UXZuVtLl4KxEDiOyhCHBggHY2RrRmZltne6h7WcTQzqz7ZcJ7nd2J3THT2A5b1lbJjLsUEuFmIfrHztf9rsyeyVBk6Gps/Pee21gTPUzk/fjTd2+AvYFYQwwad/bUhoaZSOZVh3N2wJYzjwNYP+Rj9ivgdiQlxWGE0+T1JT3a5n/JFzo1iU2B/yS01U2kPRNzHj0ffzvTqyHDr3lxLyJDqU+2Rx+lupFgeFpagqL8Hfu60thZkXGrjO2uhUTR116cKYRJPaCt97Ti211iCKLNSmrvUQLvmWjumGd5qHcM8kXVhse1PNSvsSvN8+c9CByNvxv6sFH/fxzO2UWRK4uGZiTSCZq9pDOw7Z6KkpYrpvGDFGK74ABsY9V6mUnGPZMsK/2lkFAwjYvzGci+Qt6Qoeshw7Hp9TcLmWI8krNeFz4J3ED6KDgVifrxPPLCvYV4tX3A4mlnf8T3eSjiEroCskBcFbk/Y+ipUv836VldP42M2o0cgryALhyB2zrxNiQghw+GY3t1NmNfwuSzXw3ZO9GCVE9Hns28AO2qoSsvzVnXNsA0pb75+HtgaYwC/qrIELq4RE7/TER5VnG9YSmskLHdCZ7a1eiHmKmYbV4YsE2WxR6+upEpSxYmoGseugmjHUvjC8jeTqwX8jEHmfaMKM8u7reqKR3IF9q13dBRZ24w2usm3LT9QzSPvam4JbkfCPxYOb9eQufKTmNbZER8h7AvpIvL8j6BZQjRQcDdwWoyYYPSjcKOQ3xbwPY+pD+ypW9e8PM0D9Y2FplaJN2wc8KJnJm+yBrlZGQz6g3yvXjTkXv1lvH7fQ4yaGFeQxWfkV9WRU95ZpbQ3pHacmCfrJXk3Y7fANHMmH7VU5ALb/xCjkLCrxxC8hfjGhZryarKMGSUXBlZiNfDIHUhG2LzEOvT9xEL6DcRZQOISnOPhrr+hh0pxmRfJPRnI/shewguHI7c0zRuxe8IAjJ1+j167K+FSOjTH3pus5H+iEKpUQEzBYm6Gc2eLSkKXxeyODoT0cJ0JRxXL/cTKfpdifyFntd8q8M5+2Pfq9EZ2lwefW+pscwgXGjOkUiY0CeRj8YrSASSGPZv2r0rJfTTtxRBspTJtIZvSVHuoud13+xwzoHY9yvrvsHqJE9rXyNyGuSImCk65pPPp94Lx6Hb3KSVeUhcoyUBcyf9RodztMT3edSx/ZCp2VWIqcl1yPSrt6as0Hz5rytVImRT622ydZCyY1XF5FF6Xru5ttCYgH3PSvsKthBaHvjtyhSoznLA6Uh20bp67XVkwWoKfCclxDgqEXOPxSWo8lew79uSMB0twjDswNZPlypRAn0QTcIq2IaBcwlsNFZBnqfnPbjc4ZyDsTtIWkT4JR3NULJQ2roiaaCb0b2ofA1bQ3UR8sIsSZj3wMUOqO2Tnp0jjb9nI2uv3ITqICAP+CDjtzlUa0MwFmbqiPkO57SiT/pgZP9ma8Rw8xVEIREj2Pn22JbJv0aPhlIJPo493F1ZqkTlYdqvuXwkjsK+f96jdnhkR5L9xK8nvOy/VdqNFXMgF1pk8N1Klag8zHXYGQ7nHIN9/6oasO+T6E55q/jEAAAIBUlEQVRojeVvhLO9WgV7Q7poHAMgW5bbrGgLcRcbpBjsiNhZxchh2EHvXoN0IMH40qwhxhMuCemh2MuFS3xUHHINYiYxmUY15oNfYvHCrYaEiPlBwPa0FydvB6niGmQc7l6J51BQq5TAaOPvqXjKwByyg5hU5eE2Kg46kJhbKyG5+UJgLtDBrYO0SujRTTMcO4x0T0ofXIEnj8GQU6xpxt/LUQ3zhleU345H/EBC3A+tg8xxOK9VplgxP7IudCMB67wQsoO8oLS1bcD2XPk2ksvO5GDky+P7nmip1rSI+SbmCFJffFaNf5ctgMEt+IvgGLT3awvyQ5ELKJN3ENuc67GDik1A9igO9die1kHyjCAhR4/1kcASHyDuwO9lOPdOxKHMxU7sPtxighXhJ4Hr94oWzGt8qRItpj8SRE1TSfpMtDNWqd9F3X2qcU6IKByfRkaAxnbmI/tVWULLung/PkN11dSlodnGTMZ/MLi89EUMB7UHeoSnNsYpdad5E4IYfjae4zLqZOFwZFRKeqGfJ1ts268uklGr61Gau2MvsQxAogiaN+wRxG21CvRFzM9NGbvws2bSIiS6OCqZPtWzmh+eiQ1J9/SsYcflSuNjSLqKu5Gp2g2IWr1qC/lKsT36l+pf+I3PWoT+2G6xNcR0ouhop4Xv2cjhvO8a5/jcQ7pKkSmpVNpcIzQhtVh17kL3B94Y0SbtFEGGNLqQYBNmQLeVkTBFRdBU22ZCH42Qi/QseUZ29Nhumyb8DP0L1Q1MQlJplc3H0B28inRiza/DReNzrnGOlisyL0lrBa34iL/cssQYQeocgf417kACRT+DBB4u09PwVeSFNjmtQJ2a5sZlBDH3QXyOIK6hg7Ie28YDx2NHvGss/8B/nKas3IgtV968jCcqdblYtV5onGPmiSzCRYpMWlmIW8TMogxCFvOXIzHSvodo/5ZYxpMes+khJBJezFGuzmaKPHk3D88y6nFV104yzvP5JV8V23dbK1d4bDOJrZCdb639W1iC3YxHIPZPzXTxNcRk5ThgmYiyaUGYL8hZ1w+NelxTRVxsnPdazvaT2J3ma5F7CW87txGivm72/B9nCd9gHIdMq9K+Zh8gkfnGR5LrMaP9a3PWYwZzNm3UkjDD14Qw0dgASRZk3utTiJCyDHFqcpnquTiY9Wr6IKFMX8Dthr2EbKStEVAmM29I3sjg1xv1uKQ+AFvr91LO9tM4Afv+xtjYW09pN6m8EUEelTLm9xrdiIP9OkiKrGdSjl8N8Qh8BtgrkEzmznVeNbRpMfC+43kxjRXLYJMMx66E3wj0zlSlg9RZgEyj1kfmyPX84kn0Q6YDITCNA/MG2DY7iGuKspBq3iqQ1T+9fxApUqhaB6lTQ+yAdkEyAp2L5NjQGEuYiIPmC5k34MBw429XU3Lz2YwgrqIiNFkiHs5E0hdEp6odpJEXEL/xUUjePjN1QAdi7+QbX/fGNBt33RE3O+RIRO1ZBYsDHzyGeye5jpJctluhg9RZgGR7mog97QqR19DHFKcP9hTLtYPUjScb2QJJxqO58bYiLslM36Gk3B6tjKke7EY84nzyB6ONh3PUMRJbI/PVDOdrsbFqSH4RX3PysrRY+yrtmuVVsi3mvdNKI0gjZkiXDiQSoU/MzSkXP3ITzSgxaS2lMQldCbE78Cta9/mNBn6u/P4Mkgf+DsQkaT3ELaJNRkZiR/KbiR2LqwjmKJXHl3437K/i2Bz1nKPUU0Nsl4oad8YeQfphJxSqIZEXW7XDV5JO7Jt8vsf6nzTqvj5HHUdiy5jXAesSpa4axZNhxu4gZyvtvUO+7FltmrAp9o2eS36rW5NXjbovy1GHaTU7s4A8HSR7AhYxxYjZQbZHT9cXQgvZBj2i9z34GapnGPWel6MOM4FmnoV+I30RP2+tk5yQs85YHWR5JOOY2dZFAdpqs4i10IMPFN1dH6DUeWLGOrZW6ijqvluXzbQTq5fDctQXq4PcpLTzOL0/BXjpaAvYhcAeBepcWakzS2TygYj2xawjiy94MwYj5ujadX8xY10xOsixShuzCZejvU0DA7GTZNYQ8/htcta5iVKfq1Fk0lrhcfy6Ew9DdxPoyiArhO8gm6DnDtFcm9sEYmPki6R9pczwoi7sqtS1ucN5A0heSO+cQ440lkfMNcy25uIeaCJkBxmC7GuY9bukwW7jmc+ieycuQNYPWb7eX1XqSYvhNQZ4QDmvhqdkLgmsjO5HMwu3BEEhO4jpLFYDXsY24GwTiaPRX9AaEu1vA8d6zjDO7SLZmncwEjFeG8FqyAZYaO+80Yi1q9n2dNLzd4TqIAco9XbhFlWyTUCOJNnPvQvxN9kwpQ4zXq/mzbci0jHeSmir3iljWd+uA7ytyDCV5hmgQnSQMdiJS2tk1wS2CcSe2PsYZnkYMaPfBNvwz/TTrrvbrot0wL+QHtv2KuKrMDdB/E1MWaYAqyMvvlm+qRw/MOFYlzIIiUhj1nk7bVOSSrEO+oPSylwkAvnNiH2TOV16DzvKSVJ5DzHJL4utSI8UEru8jVs0yTaR6YtYhWpfVd9lAdK5sqQMCMWOpKdljlW6WXLTf7cMyyBRUN7B/wswGzHdXiva1bixJ24pDkKXC0NfaBt/LIXsNP+JYl/YeYj5+8HIhl1VOQDdODBWeZQ48bWCUWag6LIZjOy0b4lE+FsTMbkeweLF5HzERfY1JBHQ40jynwfwn/EpFHsQJ/WyxvXIfWtZ/h+2m/H2uLTXLgAAAABJRU5ErkJggg==;imageBackground=none;imageBorder=none;" vertex="1" parent="1">
          <mxGeometry x="299" y="450" width="100" height="100" as="geometry" />
        </mxCell>
        <mxCell id="o_cxcQAfkp90SMaZBWrm-54" value="&lt;b&gt;Machine Learning&lt;/b&gt;" style="text;html=1;align=center;verticalAlign=middle;whiteSpace=wrap;rounded=0;" vertex="1" parent="1">
          <mxGeometry x="285" y="557" width="115" height="43" as="geometry" />
        </mxCell>
        <mxCell id="o_cxcQAfkp90SMaZBWrm-55" value="" style="shape=image;aspect=fixed;image=data:image/svg+xml,PHN2ZyB2aWV3Qm94PSI2NS4xIDEwMi40IDM2Ny40IDI5NS4xOTk5OTk5OTk5OTk5MyIgeG1sbnM9Imh0dHA6Ly93d3cudzMub3JnLzIwMDAvc3ZnIiB3aWR0aD0iMjUwMCIgaGVpZ2h0PSIxNTk0Ij48bGluZWFyR3JhZGllbnQgaWQ9ImEiIGdyYWRpZW50VHJhbnNmb3JtPSJzY2FsZSgxMTUuOTQ2NCAtMTE1Ljk0NjQpIHJvdGF0ZSgzMC41NzggOC40MDEgLjIyNCkiIGdyYWRpZW50VW5pdHM9InVzZXJTcGFjZU9uVXNlIiB4MT0iMS41MTEiIHgyPSIxLjY1NyIgeTE9IjEuMTkyIiB5Mj0iMS4xOTIiPjxzdG9wIG9mZnNldD0iMCIgc3RvcC1jb2xvcj0iIzkwOWNhOSIvPjxzdG9wIG9mZnNldD0iMSIgc3RvcC1jb2xvcj0iI2VkZWRlZSIvPjwvbGluZWFyR3JhZGllbnQ+PGxpbmVhckdyYWRpZW50IGlkPSJiIiBncmFkaWVudFRyYW5zZm9ybT0ibWF0cml4KDgwLjMxOTYgMCAwIC04MC4zMTk2IDE1MC43MjUgLTYxOS4zMzEpIiBncmFkaWVudFVuaXRzPSJ1c2VyU3BhY2VPblVzZSIgeDE9Ii45ODEiIHgyPSIxLjEyNyIgeTE9Ii05LjIyNCIgeTI9Ii05LjIyNCI+PHN0b3Agb2Zmc2V0PSIwIiBzdG9wLWNvbG9yPSIjOTM5ZmFiIi8+PHN0b3Agb2Zmc2V0PSIxIiBzdG9wLWNvbG9yPSIjZGNkZWUxIi8+PC9saW5lYXJHcmFkaWVudD48cmFkaWFsR3JhZGllbnQgaWQ9ImMiIGN4PSIxLjkzNSIgY3k9IjIuMjMiIGdyYWRpZW50VHJhbnNmb3JtPSJtYXRyaXgoLTEwMi40MDU1IC0xNS4zODI0IC0zMS4xMTA1IDIwNC44MTA5IDU1Ni4xNjkgLTI1MS43MTcpIiBncmFkaWVudFVuaXRzPSJ1c2VyU3BhY2VPblVzZSIgcj0iLjE0NiI+PHN0b3Agb2Zmc2V0PSIwIiBzdG9wLWNvbG9yPSIjZWUzNTJjIi8+PHN0b3Agb2Zmc2V0PSIxIiBzdG9wLWNvbG9yPSIjYTkxZDIyIi8+PC9yYWRpYWxHcmFkaWVudD48cGF0aCBkPSJNMzE1IDE5Ni40bC00MC4zIDEzLjItMzUuMSAxNS41LTkuOCAyLjZjLTIuNSAyLjQtNS4xIDQuOC04IDcuMi0zLjEgMi43LTYgNS4xLTguMiA2LjktMi41IDItNi4xIDUuNi04IDcuOS0yLjggMy41LTUgNy4yLTUuOSAxMC0xLjcgNS4xLS45IDEwLjMgMi40IDE1LjEgNC4xIDYuMSAxMi40IDEyLjMgMjIgMTYuNSA0LjkgMi4yIDEzLjIgNC45IDE5LjQgNi41IDEwLjMgMi42IDMwLjMgNS41IDQxLjMgNS45IDIuMi4xIDUuMi4xIDUuMyAwIC4yLS4yIDItMy40IDMuOS03LjUgNi44LTEzLjggMTEuNi0yNi44IDE0LjMtMzcuOCAxLjYtNi43IDIuOC0xNS42IDMuNy0yNi4yLjItMyAuMy0xMi45LjEtMTYuMi0uMy01LjUtLjgtOS45LTEuNS0xNC4zLS4xLS42LS4yLTEuMi0uMS0xLjIuMS0uMS41LS4yIDUuNS0xLjZ6bS05LjIgNS40Yy40IDAgMS4zIDkuNCAxLjYgMTUuMy4xIDEuMiAwIDIuMSAwIDIuMS0uMiAwLTUuMS0yLjktOC43LTUuMS0zLTEuOS04LjgtNS44LTkuNy02LjUtLjMtLjItLjMtLjIgMi4yLTEuMSA0LjItMS41IDE0LjItNC43IDE0LjYtNC43em0tMjAuNiA2LjhjLjMgMCAxIC40IDIuNyAxLjQgNi4zIDMuOSAxNC44IDguNyAxOC41IDEwLjMgMS4xLjUgMS4yLjMtMS4zIDIuMS01LjUgMy44LTEyLjUgNy41LTIwLjkgMTEuMi0xLjUuNy0yLjcgMS4yLTIuOCAxLjJzLjEtLjguNC0xLjdjMi03LjYgMy4yLTE1LjMgMy4zLTIxLjQtLjItMy4xLS4yLTMuMS4xLTMuMXptLTQuMiAxLjZjLjIuMi4xIDctLjIgOC45LS41IDQuNC0xLjQgOC42LTIuOCAxMy4zLS4zIDEuMS0uNiAyLjEtLjcgMi4xLS4xLjItNC4zLTMuOS01LjctNS41LTIuNC0yLjctNC4yLTUuNS01LjYtOC4yLS43LTEuNC0xLjgtNC4xLTEuNy00LjEuNS0uNCAxNi42LTYuNiAxNi43LTYuNXptLTE5LjkgNy44Yy4yLjEuNC42LjUgMS4xIDEgMi43IDMuMiA2LjYgNS4xIDkgMi4xIDIuNyA0LjggNS43IDcgNy42LjcuNiAxLjQgMS4yIDEuNSAxLjMuMi4yLjIuMi00LjcgMi01LjggMi4yLTEyIDQuNC0xOS4yIDYuNy0xLjcuNi0zLjQgMS4xLTUuMSAxLjctLjMuMS0uMi0uMS42LTEuMyAzLjYtNS42IDktMTYuNSAxMi0yNC4zLjUtMS4zIDEtMi43IDEuMS0zIC4xLS40LjMtLjYuNy0uOC4yLjEuNCAwIC41IDB6bS02LjEgMi41Yy4xLjEtMS41IDMuMy0zIDYuMy0zIDUuOC02LjIgMTEuNC0xMC41IDE4LjMtLjcgMS4yLTEuNCAyLjMtMS41IDIuNC0uMi4yLS4yLjItLjctLjgtMS0yLTEuOS00LjctMi4zLTcuMS0uNS0yLjQtLjQtNi41LjItOS4xLjQtMS45LjQtMS45IDEuMy0yLjMgMy43LTEuOSAxNi4zLTcuOCAxNi41LTcuN3ptNTIuNSAyLjJ2MS4zYzAgNi44LS43IDE2LjEtMS44IDIyLjktLjIgMS4yLS4zIDIuMi0uNCAyLjIgMCAwLS45LS4yLTEuOS0uNS00LjYtMS40LTkuNS0zLjUtMTQtNi0zLTEuNi03LjMtNC4zLTcuMS00LjQgMCAwIDEuMy0uNyAyLjgtMS41IDYtMy4xIDExLjctNi41IDE2LjctOS44IDEuOS0xLjIgNC43LTMuMyA1LjMtMy44em0tNzUuNSA5Yy4xIDAgLjEuMi0uMSAxLjMtLjEuOC0uMyAyLjMtLjMgMy4zLS4yIDQuNC41IDcuNyAyLjcgMTIuMi42IDEuMiAxLjEgMi4zIDEuMSAyLjMtLjIuMi0yMC40IDYuMS0yNi43IDcuOC0xLjkuNS0zLjUgMS0zLjcgMS0uMi4xLS4yIDAtLjItLjUuNy00LjUgNC4xLTEwLjMgOC45LTE1LjMgMy4yLTMuMyA1LjctNS4yIDEwLTcuNyAzLjEtMS42IDcuOC00LjMgOC4zLTQuNC0uMSAwLS4xIDAgMCAwem00Ny41IDguNXMuOC40IDEuNi45YzYuNSAzLjggMTUuNiA3LjMgMjMuMyA5LjFsLjcuMi0xIC41Yy00LjEgMi4zLTE3LjQgNy44LTMxIDEyLjktMiAuNy0zLjkgMS41LTQuMyAxLjYtLjQuMi0uNy4yLS43LjJzLjUtMS4xIDEuMi0yLjRjMy44LTcuMSA3LjYtMTUuOCA5LjYtMjEuOC40LS43LjYtMS4yLjYtMS4yem0tNC44IDEuNnMtLjIuNy0uNSAxLjRjLTIuNyA2LjQtNi4xIDEzLjQtMTAuNiAyMS4zLTEuMSAyLTIuMSAzLjYtMi4xIDMuNnMtLjktLjUtMi0xLjJjLTYuNS00LTEyLjItOC44LTE1LjktMTMuNmwtLjUtLjcgMi44LS44YzkuOS0yLjcgMTguNC01LjYgMjYuOC05LjIuOS0uNCAxLjktLjggMi0uOHptMzAuMSAxMC41YzAgLjctMS41IDctMi44IDExLjUtMS4xIDMuOC0yIDYuOC0zLjcgMTIuMS0uNyAyLjMtMS40IDQuMi0xLjQgNC4ycy0uMiAwLS40LS4xYy05LTEuNi0xNy4yLTMuOS0yNC44LTctMi4xLS45LTUuMi0yLjItNS40LTIuNC0uMS0uMSAxLjgtLjkgNC4xLTEuOSAxMy45LTYuMSAyOC4yLTEyLjkgMzMuMi0xNS45LjYtLjMgMS4xLS41IDEuMi0uNXptLTY5LjUgMi40Yy4xLjEtMy44IDUuNi05LjIgMTMuMi0xLjkgMi43LTQuMSA1LjgtNC45IDYuOS0uOCAxLjItMi4xIDMtMi44IDQuMWwtMS4zIDItMS40LTEuMmMtMS42LTEuMy00LjQtNC4yLTUuNy01LjgtMi42LTMuMy00LjQtNi43LTUuMS05LjgtLjMtMS41LS4zLTIuMiAwLTIuMy41LS4xIDguNi0yIDE2LjItMy44IDQuMi0xIDkuMS0yLjEgMTAuOS0yLjYgMS44LS40IDMuMi0uNyAzLjMtLjd6bTMuOSAxLjVsMSAxLjFjNC40IDQuOSA4LjkgOC41IDE0LjMgMTEuNyAxIC41IDEuNyAxIDEuNiAxLjEtLjIuMi0xOC44IDYuOC0yNy41IDkuNy00LjggMS43LTguOCAzLjEtOC45IDMuMWwtLjYtLjQtLjUtLjQuOS0xLjNjMi45LTQuMSA2LjUtOC43IDE0LjMtMTguMXptMjQuMyAxNy40czEuNC41IDMgMS4xYzQgMS41IDcuMSAyLjQgMTEuMyAzLjUgNS4yIDEuMyAxMi43IDIuNiAxNy4xIDMgLjcuMSAxIC4xLjkuMi0uMi4xLTQuNyAxLjYtOCAyLjctNS4yIDEuNi0yMS4yIDYuNC0zNC4zIDEwLjEtMi40LjctNC41IDEuMy00LjYgMS4zLS4zLjEtMS4zLS4yLTEuMy0uM3MuNy0xIDEuNi0yYzQuNC01LjIgOC43LTExLjEgMTIuNC0xNi42IDEtMS44IDEuOS0zIDEuOS0zem0tNS40LjFzLTIuMSAzLjUtNS45IDkuNWMtMS42IDIuNS0zLjQgNS40LTQuMSA2LjQtLjYgMS0xLjUgMi41LTIgMy40bC0uOSAxLjYtLjUtLjFjLTEuMS0uMy04LjgtMy0xMC44LTMuOC0yLjUtMS01LjEtMi4yLTcuMS0zLjMtMi40LTEuMy01LjUtMy4zLTUuMi0zLjMuMSAwIDQuMi0xLjIgOS4zLTIuNSAxMy4zLTMuNiAyMC43LTUuNyAyNS42LTcuMy44LS40IDEuNi0uNiAxLjYtLjZ6bTM3LjkgOC45Yy4yLjMtNC44IDE0LTYuNiAxOC4zLS40IDEtLjUgMS4yLS44IDEuMi0uNSAwLTcuNy0xLTEyLTEuNy03LjYtMS4yLTIwLjMtMy40LTIzLjUtNC4xbC0uNy0uMiA0LjUtMWM5LjgtMi4yIDE0LjQtMy40IDE5LjItNC44IDYtMS44IDExLjktNC4xIDE3LjktNi45IDEtLjQgMS44LS44IDItLjh6IiBmaWxsPSJ1cmwoI2EpIi8+PHBhdGggZD0iTTI3My40IDEwMi41Yy0uNy0uMS0xMS41IDMuOC0xOC41IDYuNi05LjQgMy44LTE2LjcgNy41LTIxLjIgMTAuNy0xLjcgMS4yLTMuOCAzLjMtNC4xIDQuMS0uMS4zLS4yLjctLjIgMWw0LjEgMy45IDkuNyAzLjEgMjMuMSA0LjEgMjYuNCA0LjUuMy0yLjNoLS4ybC0zLjUtLjUtLjctMS4yYy0zLjYtNi4zLTcuNi0xNC4yLTkuOS0xOS41LTEuOC00LjEtMy41LTguOS00LjQtMTIuMy0uNS0yLjEtLjYtMi4yLS45LTIuMnptLS41IDEuNWMuMSAwIC4yLjkuMyAxLjkuNSA0LjMgMS41IDguNCAzIDEyLjggMS4xIDMuNCAxLjEgMy4yLS4yIDIuOC0zLjEtLjktMTctMy4zLTI3LjEtNC43LTEuNi0uMi0zLS40LTMtLjUtLjEtLjEgNy4zLTQgMTAuNS01LjUgNC4yLTEuOSAxNS43LTYuNiAxNi41LTYuOHptLTI5LjQgMTMuN2wxLjIuNGM2LjUgMi4yIDIyLjcgNS4zIDMxLjcgNiAxIC4xIDEuOS4yIDEuOS4ycy0uOC41LTEuOSAxYy00LjMgMi4yLTkuMSA0LjgtMTIuNCA2LjktMSAuNi0xLjkgMS4xLTIgMS4xcy0uOC0uMS0xLjQtLjJsLTEuMi0uMi0zLTNjLTUuNC01LjItOS42LTkuMi0xMS4yLTEwLjh6bS0xLjIuOWw0LjMgNS40YzIuMyAzIDQuNyA1LjggNS4yIDYuNS41LjYuOSAxLjIuOSAxLjItLjEuMS02LjItMS4xLTkuNC0xLjgtMy4zLS44LTQuNy0xLjEtNi43LTEuOGwtMS43LS41di0uNGMwLTIgMi42LTUuMSA3LTguMnptMzYuNSA3LjNjLjEgMCAuMy4zLjYgMS4xIDEgMi4zIDQuMyA4LjQgNS4xIDkuNi4yLjQuNy40LTMuNi0uMy0xMC4zLTEuNy0xMy42LTIuMi0xMy42LTIuMyAwIDAgLjMtLjIuNy0uNSAzLjItMS44IDYuNC00IDkuMy02LjQuNy0uNiAxLjMtMS4xIDEuNS0xLjItLjEgMCAwIDAgMCAweiIgZmlsbD0idXJsKCNiKSIvPjxwYXRoIGQ9Ik0yMjkuOCAxMjMuNHMtLjcgMS4xIDAgMi43Yy40IDEgMS42IDIuMiAyLjkgMy40IDAgMCAxMy42IDEzLjIgMTUuMiAxNS4xIDcuNSA4LjcgMTAuOCAxNy4yIDExLjEgMjguOS4yIDcuNi0xLjIgMTQuMi00LjggMjEuOS02LjMgMTMuOC0xOS43IDI5LjEtNDAuMyA0NmwzLTFjMS45LTEuNSA0LjYtMyAxMC44LTYuNCAxNC40LTcuOSAzMC41LTE1LjEgNTAuMy0yMi41IDI4LjUtMTAuNyA3NS40LTIzLjMgMTAyLjEtMjcuNGwyLjgtLjQtLjQtLjdjLTIuNC0zLjgtNC4xLTYuMS02LjEtOC42LTUuOC03LjMtMTIuOS0xMy4xLTIxLjYtMTgtMTEuOS02LjctMjcuNC0xMS45LTQ3LTE1LjgtMy43LS43LTExLjgtMi4xLTE4LjQtMy4xLTE0LTIuMi0yMy0zLjctMzIuOS01LjQtMy42LS42LTguOS0xLjUtMTIuNC0yLjMtMS44LS40LTUuMy0xLjItOC4xLTIuMi0yLjQtLjctNS41LTEuNi02LjItNC4yem03LjkgNy43cy41LjIgMS4yLjRjMS4yLjQgMi43LjkgNC40IDEuMyAxLjMuNCAyLjcuNyA0IDEuMSAxLjguNSAzLjQuOSAzLjQuOS4yLjIgMy4zIDEwLjEgNC4zIDEzLjguNCAxLjQuNyAyLjcuNyAyLjdzLS40LS41LS44LTEuMmMtMy42LTYuMy05LjItMTIuNi0xNS43LTE3LjgtLjktLjctMS41LTEuMi0xLjUtMS4yem0xNSA0LjFjLjIgMCAuOC4xIDEuNi4zIDUuMiAxLjIgMTQuNSAyLjkgMjAuNCAzLjkgMSAuMiAxLjguMyAxLjguNHMtLjQuMy0uOC41Yy0xIC41LTUuMSAyLjktNi40IDMuOC0zLjQgMi4zLTYuNCA0LjctOC42IDYuOWwtMS42IDEuNnMtLjItLjUtLjMtMS4yYy0xLjEtNC4yLTMuNC0xMC41LTUuNS0xNC45LS40LS42LS43LTEuMy0uNi0xLjMtLjEgMC0uMSAwIDAgMHptMjYuMyA1Yy4yLjEuNSAxLjEgMS4xIDMuNCAxLjEgNC40IDEuNiA5LjQgMS41IDE0LS4xIDEuMy0uMSAyLjUtLjIgMi42bC0uMS4zLTEuNi0uNWMtMy4zLTEtOC42LTIuNi0xMy4xLTMuOS0yLjYtLjctNC43LTEuMy00LjctMS40IDAtLjIgMy44LTQgNS40LTUuNCAzLjEtMi43IDExLjUtOS4yIDExLjctOS4xem0yLjEuM2MuMS0uMSAxMi42IDIuMSAxOC4zIDMuMiA0LjIuOCAxMC40IDIuMSAxMC44IDIuMy4yLjEtLjUuNC0yLjUgMS4zLTggMy42LTE0IDYuOS0yMCAxMC44LTEuNiAxLTIuOSAxLjktMi45IDEuOXMtLjEtLjktLjEtMS45YzAtNS44LTEuMi0xMS42LTMuMy0xNi42LS4xLS41LS4zLS45LS4zLTF6bTMyLjQgNi40Yy4xLjEtLjMgMi42LS43IDQtMS4xIDQuNS00LjEgMTEuMy03LjcgMTcuNi0uNiAxLjEtMS4yIDItMS4zIDIuMS0uMSAwLS45LS40LTEuOC0xLTMuNS0yLjEtNy42LTQtMTEuOS01LjgtMS4yLS41LTIuMy0uOS0yLjMtMS0uMi0uMiA5LjYtNi43IDE0LjgtOS44IDQuMS0yLjUgMTAuOC02LjIgMTAuOS02LjF6bTIuMy40Yy4zIDAgNS44IDEuNSA4LjcgMi40IDcuMiAyLjEgMTUuNCA1LjEgMjAuNyA3LjZsMi4yIDEtMS42LjRjLTEzLjEgMy0yNC4zIDYuNS0zNS4xIDEwLjktLjkuNC0xLjcuNy0xLjcuNy0uMSAwIC4yLS43LjYtMS42IDMuMy02LjkgNS40LTE0LjEgNS45LTIwLjMuMi0uNi4zLTEuMS4zLTEuMXpNMjYwLjYgMTYwYy4xLS4xIDQuMy45IDYuNiAxLjYgMy41IDEgMTAuOCAzLjQgMTAuOCAzLjYgMCAwLS44LjctMS44IDEuNi00IDMuMy03LjggNi44LTEyLjQgMTEuMy0xLjQgMS4zLTIuNSAyLjQtMi42IDIuNHMtLjEtLjItLjEtLjRjLjctNS4xLjUtMTEuNy0uNC0xOC40IDAtMS0uMS0xLjctLjEtMS43em04OSAuMWMuMS4xLTIgMy4yLTMuMiA1LTEuOCAyLjYtNC41IDYuMS0xMC42IDEzLjctMy4yIDQtNi44IDguNi04IDEwLjFzLTIuMiAyLjgtMi4zIDIuOGMwIDAtLjQtLjUtLjktMS4yLTMuNC01LjEtNy41LTkuNi0xMi4zLTEzLjYtLjktLjgtMS45LTEuNi0yLjMtMS44LS4zLS4yLS42LS41LS42LS41IDAtLjEgNS4yLTIuMyA5LjEtMy45IDYuOS0yLjggMTYuMy02LjIgMjMuMy04LjMgMy44LTEuMyA3LjgtMi40IDcuOC0yLjN6bTIuNC42Yy4xIDAgLjkuMyAxLjcuOSA3LjQgNC4yIDE0LjcgOS43IDIwLjQgMTUuMyAxLjYgMS42IDUuNiA1LjcgNS41IDUuOCAwIDAtMS40LjEtMyAuMi0xMi44IDEtMjkuMiAzLjctNDUgNy41LTEuMS4yLTIgLjUtMi4xLjVzMS4xLTEuMiAyLjYtMi42YzkuMy04LjkgMTMuNS0xNC42IDE4LjUtMjQuNi43LTEuNyAxLjMtMi45IDEuNC0zLS4xIDAtLjEgMCAwIDB6bS02Ny45IDYuOWMuNC4xIDQuNCAyIDcuNCAzLjQgMi43IDEuNCA2LjkgMy42IDcuMSAzLjcgMCAwLTEuNC44LTMuMiAxLjctNS43IDIuOS0xMC42IDUuNi0xNS44IDguNy0xLjUuOS0yLjcgMS42LTIuNyAxLjYtLjEgMC0uMS0uMS43LTEuNiAyLjctNSA0LjktMTEgNi4yLTE2LjguMS0uNC4yLS43LjMtLjd6bS0zLjkuOGMuMS4xLS45IDMuOC0xLjYgNS45LTEuMiAzLjktMy40IDguNy01LjQgMTIuNC0uNS45LTEuMiAyLjEtMS42IDIuOGwtLjggMS4yLTEuNy0xLjZjLTItMS45LTMuNi0zLjEtNS43LTQuMi0uOC0uNC0xLjUtLjgtMS41LS45IDAtLjIgNS4yLTUgOS4yLTguNCAyLjktMi41IDktNy4zIDkuMS03LjJ6bTI0LjIgOS45bDEuNSAxYzMuNCAyLjIgNy40IDUuMiAxMC41IDcuOCAxLjcgMS40IDUuMSA0LjQgNS44IDUuMmwuNC40LTIuNS43Yy0xNCAzLjktMjQuNyA3LjMtMzcuMyAxMS45LTEuNC41LTIuNi45LTIuNy45LS4yIDAtLjMuMiAyLjgtMi43IDgtNy40IDE1LjItMTUuNiAyMC41LTIzLjV6bS02LjQgMS42Yy4xLjEtNC4xIDUuOS02LjYgOS4zLTMgNC04LjMgMTAuNi0xMS45IDE0LjktMS41IDEuOC0yLjggMy4zLTIuOSAzLjNzLS4xLS40LS4xLTEuMWMwLTMuNy0uOS03LjYtMi42LTExLS43LTEuNC0uOC0xLjctLjctMS45LjYtLjUgOS40LTUuNiAxNS4xLTguNiAzLjctMiA5LjYtNSA5LjctNC45em0tMzguNSA5LjRjLjEgMCAuOC40IDEuNi44IDEuOSAxLjEgMy43IDIuMyA1LjIgMy41LjEuMS0uNy43LTEuOCAxLjUtMi45IDIuMS03LjMgNS40LTkuOCA3LjQtMi43IDIuMS0yLjggMi4yLTIuNSAxLjcgMi0zLjEgMy00LjggNC4xLTcgLjktMiAxLjktNC4zIDIuNi02LjQuMi0uOC41LTEuNS42LTEuNXptMTAuMyA4LjFjLjIgMCAuMy4yIDEuMiAxLjUgMS43IDIuNiAzLjEgNi4xIDMuNCA4LjlsLjEuNi00LjIgMS42Yy03LjUgMi45LTE0LjQgNS44LTE5IDcuOS0xLjMuNi0zLjYgMS43LTUuMSAyLjQtMS41LjgtMi43IDEuMy0yLjcgMS4zcy45LS43IDIuMS0xLjZjOS4xLTYuNiAxNy0xMy45IDIyLjktMjEuMS42LS44IDEuMi0xLjUgMS4zLTEuNXptLTQuNyAxLjFjLjEuMS0zLjQgNC4xLTUuNyA2LjUtNS45IDYtMTEuNyAxMC43LTE4LjkgMTUuMy0uOS42LTEuNyAxLjEtMS44IDEuMi0uMi4xLjEtLjIgMy4yLTMuNiAyLTIuMiAzLjUtNCA1LjMtNi4yIDEuMi0xLjUgMS40LTEuNyAzLTIuOSA0LjQtMy40IDE0LjctMTAuNCAxNC45LTEwLjN6IiBmaWxsPSJ1cmwoI2MpIi8+PHBhdGggZD0iTTEzMy4xIDMyNC43Yy0uNiAwLTEuMS4xLTEuNy4xLTExLjQuNi0xOSA1LjYtMjMuNSAxNS40LTMuOCA4LjgtMy40IDIwLjQgMCAyOS4yIDQgOC43IDEwLjUgMTMuMyAyMS4zIDE1IDIuMy40IDMuOCAxLjYgOC4zIDYuOGw1LjUgNi40aDkuOWwtNi42LTYuNmMtMy42LTMuNi02LjYtNi44LTYuNi03LjFzMS40LS45IDMuMS0xLjRjNS42LTEuNyAxMC4yLTYgMTMuNC0xMi42IDIuNi01LjMgMy02LjkgMy40LTEzLjUgMS0xOS42LTkuMy0zMS44LTI2LjUtMzEuN3ptOC43IDUxLjJjLTQuOCAyLjMtMTEuOCAyLjgtMTYuNCAxLjEtNC43LTEuNy05LjMtNi42LTExLjQtMTIuMi0yLjMtNi4xLTItMTcuMy43LTIyLjMgNC4yLTggOS44LTExLjcgMTcuOS0xMS43IDEyIDAgMTguOSA3LjQgMTkuOCAyMS4yLjcgMTEuNi0zLjIgMjAuMy0xMC42IDIzLjl6bTE3MS4xLTM0LjVjLTQuMiAwLTcuMyAxLjctOS41IDVsLTEuNyAyLjZ2LTYuOGgtNy4ydjQwLjloNy4yVjM3MGMwLTEyIC4xLTEzLjQgMS44LTE2LjYgMi4zLTQuNSA2LjMtNi43IDEwLjEtNS43bDIuNi43di03LjF6bS00Mi4yLS40Yy0xLjQgMC0yLjkuMi00LjQuNS05LjYgMi41LTE1IDExLjctMTQuNyAyMS4yIDAgNy45IDEuNSAxMS45IDUuNCAxNi4xIDcuOCA2LjQgMTQuOSA2LjkgMjQuNSAzLjUgMS42LS43IDMuNC0xLjUgMy40LTEuNXYtNi40bC0zLjQgMS44Yy03LjcgMy40LTEzLjYgMy40LTE4LjMtLjYtMy0zLTQuMy02LjctNC45LTEwLjhoMjl2LTUuNWMwLTExLjMtNi44LTE4LjQtMTYuNi0xOC4zek0yNTkgMzU5czEuMS03IDUtOS44YzEuOS0xLjMgNC4xLTIgNi4zLTJzNC4zLjcgNi4xIDIuMWMzLjYgMi44IDQuMyA5LjcgNC4zIDkuN3ptLTE3My40LTcuNGMtNy44LTQuNy0xMS4zLTguMS0xMC44LTEyLjEgMS4yLTExLjEgMTQuOS05LjYgMjIuNS01LjRsLjEtNy41cy00LjItMS44LTEwLjItMS45Yy05LjItLjEtMTUuMiAyLjktMTggOS4xLTQuMSA5LjEtLjUgMTYgMTIuNyAyMy42IDcuNCA0LjMgMTAuNyA4IDEwLjcgMTIuMSAwIDguNC0xMC4xIDExLjMtMjAuNiA2LjEtMi4yLTEuMS00LTItNC4xLTItLjQgMi40LS4yIDguMS0uMiA4LjFzMy4yIDEuMyA4IDIuM2MxMiAyLjQgMjIuOC0zLjIgMjMuOS0xMi4zLjgtOC42LTIuMy0xMy4xLTE0LTIwLjF6bTI5MS0xMC42Yy0xLjQgMC0yLjkuMi00LjQuNS05LjYgMi41LTE1IDExLjctMTQuNyAyMS4yIDAgNy45IDEuNSAxMS45IDUuNCAxNiA3LjggNi40IDE0LjkgNyAyNC42IDMuNSAxLjYtLjcgMy40LTEuNSAzLjQtMS41di02LjRsLTMuNCAxLjhjLTcuOCAzLjQtMTMuNiAzLjQtMTguMy0uNi0zLTMtNC4zLTYuNi00LjktMTAuOGgyOC45di01LjVjMC0xMS4zLTYuOC0xOC40LTE2LjYtMTguMnptLTExLjggMTcuOXMxLjEtNyA1LTkuOGMxLjktMS40IDQuMS0yIDYuMi0yczQuMy43IDYuMSAyLjFjMy42IDIuOCA0LjMgOS43IDQuMyA5Ljd6TTIzMyAzNTEuN2MtNy44LTQuNy0xMS4yLTguMS0xMC44LTEyLjEgMS4yLTExLjEgMTQuOS05LjYgMjIuNS01LjRsLjEtNy41cy00LjItMS44LTEwLjItMS45Yy05LjItLjEtMTUuMiAyLjktMTggOS4xLTQuMSA5LjEtLjQgMTYgMTIuNyAyMy42IDcuNCA0LjMgMTAuNiA4IDEwLjYgMTIgMCA4LjQtMTAuMSAxMS40LTIwLjYgNi4xLTIuMS0xLjEtNC0yLTQuMS0yLS40IDIuNC0uMiA4LjEtLjIgOC4xczMuMiAxLjMgOCAyLjNjMTIgMi40IDIyLjgtMy4yIDIzLjktMTIuMy45LTguNS0yLjItMTMtMTMuOS0yMHptMTg1LjgtMTAuNGMtNC4yIDAtNy40IDEuNy05LjUgNWwtMS43IDIuNnYtNi44aC03LjJWMzgzaDcuMnYtMTNjMC0xMiAuMS0xMy40IDEuOC0xNi42IDIuMy00LjUgNi4zLTYuNyAxMC4xLTUuNmwyLjYuN3YtNy4xem0tMjQzIDEwLjJ2LTI2LjFoLTcuMnY1Ny43aDMwLjV2LTYuOGgtMjMuMnptMTY3LjcgOC4xbC02IDE1LjUtNS43LTE1LjYtNS44LTE3LjNoLTcuNGM0LjggMTMuNiAxMCAyNy41IDE1LjMgNDAuOSAyLjMuMSA0LjYgMCA2LjkgMGw4LjEtMjAuMyA4LjItMjAuN0gzNTBjLS4xLjEtMy4yIDguMy02LjUgMTcuNXptLTE1MC45LTQ5LjljMS4yIDAgMi4xLS40IDIuOS0xLjJzMS4yLTEuNyAxLjItMi45LS40LTIuMS0xLjItMi45Yy0uOC0uNy0xLjctMS4xLTIuOS0xLjFzLTIuMi40LTIuOSAxLjJjLS44LjgtMS4yIDEuOC0xLjIgMi45IDAgMS4yLjQgMi4yIDEuMiAyLjkuNy43IDEuNyAxLjEgMi45IDEuMXpNMTkwIDMwM2MuNy0uNyAxLjUtMSAyLjYtMSAxIDAgMS45LjMgMi42IDFzMS4xIDEuNSAxLjEgMi42YzAgMS0uNCAxLjktMS4xIDIuNnMtMS42IDEtMi42IDEtMS45LS4zLTIuNi0xLTEuMS0xLjYtMS4xLTIuNmMuMS0xIC40LTEuOSAxLjEtMi42em0xLjcgM2guNWMuMyAwIC43LjMuOS45bC42IDEuM2guOWwtLjctMS40Yy0uMy0uNi0uNi0uOS0uOS0xIC40LS4xLjctLjIgMS0uNS4yLS4yLjMtLjYuMy0uOSAwLS40LS4xLS43LS40LTFzLS44LS40LTEuNS0uNGgtMS41djUuMmguN3ptMC0yLjRoLjdjLjUgMCAuOC4xIDEgLjJzLjIuMy4yLjdjMCAuNi0uNC45LTEuMS45aC0uOHpNNzIgMzA1LjVjMC0xLjgtLjEtMy4yLS4xLTQgLjIuOS40IDEuNi42IDIuMWw3IDE1LjVoMS4ybDctMTUuN2MuMi0uNC40LTEuMS42LTJoLjFjLS4xIDEuNi0uMiAyLjktLjIgNHYxMy43aDIuNHYtMjAuNGgtM0w4MS4xIDMxM2MtLjIuNi0uNiAxLjQtMSAyLjVIODBjLS4xLS42LS41LTEuNC0uOS0yLjRsLTYuMy0xNC4zaC0zLjJ2MjAuNGgyLjN6bTIzLjcuMWgyLjF2MTIuN2gtMi4xem0xLTQuN2MuNCAwIC44LS4xIDEuMS0uNHMuNS0uNi41LTEuMWMwLS40LS4xLS44LS41LTEuMS0uMy0uMy0uNy0uNC0xLjEtLjRzLS44LjEtMS4xLjQtLjUuNy0uNSAxLjFjMCAuNS4xLjguNSAxLjEuMy4zLjcuNCAxLjEuNHptMTUuNyAxNy42di0yLjJjLTEuMS44LTIuMyAxLjMtMy42IDEuMy0xLjUgMC0yLjctLjUtMy42LTEuNXMtMS40LTIuMy0xLjQtNGMwLTEuOC41LTMuMiAxLjQtNC4yczIuMi0xLjUgMy42LTEuNWMxLjIgMCAyLjQuNCAzLjUgMS4xVjMwNWMtMS0uNS0yLjEtLjctMy40LS43LTIuMyAwLTQuMi43LTUuNSAyLjItMS4zIDEuNC0yIDMuNC0yIDUuOCAwIDIuMS42IDMuOSAxLjkgNS4yIDEuMyAxLjQgMyAyLjEgNSAyLjEgMS43LS4xIDMtLjQgNC4xLTEuMXptNS45LTYuN2MwLTEuNy40LTMgMS4xLTQgLjctLjggMS40LTEuMyAyLjQtMS4zLjggMCAxLjQuMSAxLjguNXYtMi40Yy0uMy0uMS0uOC0uMi0xLjQtLjItLjggMC0xLjYuMy0yLjIuOC0uNy42LTEuMyAxLjQtMS42IDIuNWgtLjF2LTNIMTE2djE0LjZoMi4zem0xMy40IDcuN2MyLjIgMCA0LS43IDUuMy0yLjFzMi0zLjMgMi01LjZjMC0yLjQtLjYtNC4yLTEuOC01LjZzLTIuOS0yLTUuMS0yLTQgLjctNS4zIDEuOWMtMS40IDEuNC0yLjEgMy40LTIuMSA1LjkgMCAyLjIuNiA0IDEuOSA1LjQgMS4yIDEuNCAyLjkgMi4xIDUuMSAyLjF6bS0zLjMtMTEuOGMuOS0uOSAyLjEtMS40IDMuNS0xLjQgMS41IDAgMi42LjUgMy41IDEuNC44IDEgMS4zIDIuNCAxLjMgNC4ycy0uNCAzLjItMS4yIDQuMWMtLjggMS0yIDEuNS0zLjUgMS41cy0yLjctLjUtMy42LTEuNS0xLjMtMi4zLTEuMy00LjFjLS4xLTEuOC4zLTMuMiAxLjMtNC4yem0yMC43IDEwLjZjLjktLjggMS40LTEuOCAxLjQtMyAwLTEuMS0uNC0yLTEuMS0yLjctLjYtLjYtMS40LTEuMS0yLjctMS42LTEuMS0uNS0xLjgtLjktMi4yLTEuMi0uNC0uNC0uNi0uOC0uNi0xLjUgMC0uNi4yLTEuMS43LTEuNC41LS40IDEuMS0uNiAxLjktLjYgMS4zIDAgMi4zLjMgMy4zIDFWMzA1Yy0uOS0uNS0yLS43LTMuMS0uNy0xLjUgMC0yLjguNC0zLjcgMS4yLTEgLjgtMS40IDEuOC0xLjQgMyAwIDEuMS4zIDIgLjkgMi42LjUuNiAxLjQgMS4xIDIuNiAxLjZzMiAxIDIuNCAxLjQuNi44LjYgMS40YzAgMS40LS45IDIuMS0yLjggMi4xLTEuNCAwLTIuNy0uNS0zLjgtMS40djIuNWMxIC42IDIuMi45IDMuNi45IDEuNy0uMSAzLjEtLjUgNC0xLjN6bTExLjEtMTRjLTIuMiAwLTQgLjctNS4zIDEuOS0xLjQgMS40LTIuMSAzLjQtMi4xIDUuOSAwIDIuMi42IDQgMS45IDUuNHMzIDIuMSA1LjIgMi4xIDQtLjcgNS4zLTIuMSAyLTMuMyAyLTUuNmMwLTIuNC0uNi00LjItMS44LTUuNi0xLjMtMS40LTMtMi01LjItMnptNC42IDcuNmMwIDEuOC0uNCAzLjItMS4yIDQuMS0uOCAxLTIgMS41LTMuNSAxLjVzLTIuNy0uNS0zLjYtMS41LTEuMy0yLjMtMS4zLTQuMWMwLTEuOS41LTMuMyAxLjQtNC4zLjktLjkgMi4xLTEuNCAzLjUtMS40czIuNi41IDMuNCAxLjRjLjkgMSAxLjMgMi40IDEuMyA0LjN6bTYuMyA3LjNoMi4zdi0xMi42aDMuNHYtMmgtMy40di0yLjJjMC0yIC44LTMuMSAyLjQtMy4xLjYgMCAxLjEuMSAxLjUuNHYtMi4xYy0uNC0uMi0xLS4yLTEuNy0uMi0xLjMgMC0yLjMuNC0zLjEgMS4yLTEgLjktMS41IDIuMS0xLjUgMy44djIuNGgtMi41djJoMi41em05LjYtNGMwIDIuOCAxLjMgNC4zIDMuOCA0LjMuOSAwIDEuNi0uMSAyLjItLjV2LTJjLS40LjMtLjkuNS0xLjUuNS0uOCAwLTEuMy0uMi0xLjctLjYtLjMtLjQtLjUtMS4xLS41LTIuMXYtOC4yaDMuN3YtMkgxODN2LTQuM2MtLjguMy0xLjYuNS0yLjMuN3YzLjVoLTIuNXYyaDIuNXptMjUwLjUgMjYuOWMtLjgtLjctMS43LTEuMS0yLjktMS4xcy0yLjIuNC0yLjkgMS4yYy0uOC44LTEuMiAxLjgtMS4yIDIuOSAwIDEuMi40IDIuMSAxLjIgMi45LjguNyAxLjggMS4xIDIuOSAxLjEgMS4yIDAgMi4xLS40IDIuOS0xLjJzMS4yLTEuNyAxLjItMi45Yy4xLTEuMi0uNC0yLjItMS4yLTIuOXptLS4zIDUuNWMtLjcuNy0xLjUgMS0yLjYgMS0xIDAtMS45LS4zLTIuNi0xcy0xLjEtMS42LTEuMS0yLjYuMy0xLjkgMS0yLjYgMS41LTEgMi42LTFjMSAwIDEuOS4zIDIuNiAxczEuMSAxLjYgMS4xIDIuNi0uMyAxLjktMSAyLjZ6bS0yLjEtMi40Yy40LS4xLjctLjMgMS0uNS4yLS4yLjMtLjYuMy0uOSAwLS40LS4xLS43LS40LTFzLS44LS40LTEuNS0uNGgtMS41djUuMmguN3YtMi4yaC41Yy4zIDAgLjYuMy45LjlsLjYgMS4zaC45bC0uNy0xLjRjLS4zLS42LS42LS45LS44LTF6bS0uNS0uNWgtLjhWMzQzaC43Yy41IDAgLjguMSAxIC4ycy4yLjMuMi43Yy0uMS42LS40LjgtMS4xLjh6TTI5OCAzMDRoLjd2LTUuMmgxLjd2LS43aC00LjF2LjdoMS43em0zLjktMy45di0xLjJjMCAuMy4xLjUuMi42bDIgNC41aC4zbDItNC41Yy4xLS4xLjEtLjMuMi0uNnY1LjFoLjd2LTUuOWgtLjhsLTEuOCA0LjFjMCAuMS0uMi40LS4zLjhoLS4xYzAtLjItLjEtLjQtLjMtLjdsLTEuOC00LjFoLS45djUuOWguN3oiIGZpbGw9IiMyMzFmMWYiLz48L3N2Zz4=;" vertex="1" parent="1">
          <mxGeometry x="-420" y="33.28" width="73.28" height="46.72" as="geometry" />
        </mxCell>
      </root>
    </mxGraphModel>
  </diagram>
</mxfile>
